<?xml version="1.0" standalone="no"?>
<!DOCTYPE svg PUBLIC "-//W3C//DTD SVG 20010904//EN"
 "http://www.w3.org/TR/2001/REC-SVG-20010904/DTD/svg10.dtd">
<svg version="1.0" xmlns="http://www.w3.org/2000/svg"
 width="1200.000000pt" height="1200.000000pt" viewBox="0 0 1200.000000 1200.000000"
 preserveAspectRatio="xMidYMid meet">
<metadata>
Created by potrace 1.14, written by Peter Selinger 2001-2017
</metadata>
<g transform="translate(0.000000,1200.000000) scale(0.100000,-0.100000)"
fill="#000000" stroke="none">
<path d="M4430 9234 l0 -447 133 7 c72 3 191 9 262 12 72 3 146 7 165 9 19 2
42 4 51 4 14 1 17 19 17 149 0 81 1 154 1 162 1 13 68 15 544 14 496 -2 707
-7 763 -18 12 -2 38 -7 59 -10 136 -22 343 -108 464 -193 75 -53 255 -229 294
-288 89 -134 107 -164 137 -228 46 -100 47 -104 71 -177 31 -99 50 -185 63
-287 3 -24 9 -62 12 -85 7 -44 6 -378 0 -433 -21 -181 -35 -267 -56 -345 -7
-25 -13 -52 -15 -61 -16 -82 -110 -292 -173 -389 -110 -165 -281 -312 -463
-398 -121 -56 -255 -93 -464 -128 -68 -11 -1227 -17 -1234 -6 -3 6 -6 459 -5
1007 l1 997 -171 -6 c-154 -6 -287 -14 -371 -21 -16 -2 -42 -3 -57 -4 l-28 -1
0 -2880 0 -2880 313 0 314 0 -1 1596 c-1 877 2 1603 6 1614 6 17 33 18 580 18
653 1 716 4 938 43 629 111 1087 461 1335 1022 39 86 101 268 110 318 3 18 8
35 10 39 8 12 43 199 51 274 3 23 7 52 9 66 15 86 24 416 14 525 -4 39 -10
102 -13 140 -4 39 -8 81 -11 94 -2 13 -6 42 -9 65 -10 82 -67 303 -95 371 -5
11 -15 36 -22 55 -49 135 -167 345 -259 460 -260 326 -599 531 -1035 626 -11
2 -51 9 -90 15 -38 6 -81 13 -95 17 -14 3 -481 7 -1037 9 l-1013 4 0 -447z"/>
<path d="M5407 8754 c-1 -1 -148 -4 -327 -8 -179 -3 -350 -8 -380 -10 -30 -2
-102 -7 -160 -10 -147 -9 -218 -15 -270 -21 -25 -3 -65 -8 -90 -10 -25 -3 -56
-7 -70 -10 -14 -2 -45 -7 -70 -10 -76 -10 -281 -62 -353 -89 -256 -98 -496
-279 -627 -474 -109 -161 -171 -333 -220 -612 -10 -58 -21 -130 -25 -160 -3
-30 -8 -66 -10 -80 -3 -14 -7 -59 -10 -100 -3 -41 -8 -97 -10 -125 -29 -373
-36 -1578 -11 -1970 2 -27 7 -105 10 -173 4 -67 9 -130 11 -140 2 -10 6 -51
10 -91 3 -40 8 -80 10 -89 1 -9 6 -39 9 -67 33 -256 130 -524 248 -682 207
-278 493 -456 846 -528 116 -23 277 -48 387 -59 l51 -5 0 294 0 294 -50 11
c-28 6 -67 13 -86 16 -85 14 -234 65 -337 116 -48 24 -165 126 -214 188 -78
97 -157 282 -182 425 -3 17 -12 68 -20 115 -9 47 -18 112 -22 145 -3 33 -8 74
-10 90 -5 33 -13 144 -20 280 -20 335 -20 1381 0 1655 19 270 23 307 55 479
53 293 184 508 376 621 60 36 163 83 204 95 3 0 30 8 60 17 49 14 147 37 190
44 67 10 104 14 165 19 39 3 94 7 124 10 30 2 118 7 195 11 78 3 166 8 196 9
459 23 1919 23 2313 0 26 -1 47 2 47 8 0 16 -70 188 -103 252 -48 92 -139 224
-196 282 l-51 53 -791 -3 c-435 -1 -791 -3 -792 -3z"/>
<path d="M7973 8699 c3 -8 17 -43 32 -79 14 -36 30 -74 34 -85 18 -41 78 -257
87 -315 3 -14 9 -47 14 -75 5 -27 12 -63 14 -79 3 -16 6 -29 8 -30 2 -1 23
-11 48 -22 109 -47 211 -132 270 -224 28 -44 73 -157 84 -211 9 -44 16 -84 21
-119 5 -35 15 -243 18 -395 l2 -80 318 -1 319 -2 -7 157 c-4 86 -8 169 -10
185 -2 16 -6 64 -10 105 -4 42 -10 101 -15 131 -5 30 -11 71 -14 90 -5 30 -11
63 -32 168 -11 53 -69 212 -101 276 -144 285 -450 488 -868 575 -55 11 -117
23 -137 25 -20 2 -47 8 -59 11 -16 6 -21 4 -16 -6z"/>
<path d="M7201 5261 c0 -199 3 -270 12 -273 7 -2 311 -4 676 -3 l664 1 -7
-176 c-7 -208 -11 -245 -37 -373 -54 -270 -167 -436 -362 -532 -84 -41 -168
-69 -246 -80 -17 -3 -43 -7 -58 -9 -25 -4 -80 -8 -268 -21 -27 -2 -111 -7
-185 -10 -74 -4 -157 -9 -185 -10 -288 -16 -833 -20 -1705 -14 l-375 2 -1
-286 0 -285 25 -4 c46 -6 2029 -1 2236 6 279 9 498 22 546 31 10 2 46 6 80 10
35 4 66 8 69 10 3 2 23 6 44 9 113 18 304 90 421 159 179 105 358 311 460 530
63 136 129 357 150 502 3 23 7 51 10 64 2 13 7 49 10 80 3 31 8 70 10 86 18
132 26 768 11 829 l-6 26 -995 0 -994 0 0 -269z"/>
</g>
</svg>
